<svg xmlns="http://www.w3.org/2000/svg" width="22.5" height="15.75" viewBox="0 0 22.5 15.75">
  <path id="Icon_awesome-users" data-name="Icon awesome-users" d="M3.375,9a2.25,2.25,0,1,0-2.25-2.25A2.252,2.252,0,0,0,3.375,9Zm15.75,0a2.25,2.25,0,1,0-2.25-2.25A2.252,2.252,0,0,0,19.125,9Zm1.125,1.125H18a2.243,2.243,0,0,0-1.586.654,5.142,5.142,0,0,1,2.64,3.846h2.32A1.124,1.124,0,0,0,22.5,13.5V12.375A2.252,2.252,0,0,0,20.25,10.125Zm-9,0A3.938,3.938,0,1,0,7.313,6.188,3.936,3.936,0,0,0,11.25,10.125Zm2.7,1.125h-.292a5.436,5.436,0,0,1-4.816,0H8.55A4.051,4.051,0,0,0,4.5,15.3v1.012A1.688,1.688,0,0,0,6.188,18H16.313A1.688,1.688,0,0,0,18,16.313V15.3A4.051,4.051,0,0,0,13.95,11.25Zm-7.864-.471A2.243,2.243,0,0,0,4.5,10.125H2.25A2.252,2.252,0,0,0,0,12.375V13.5a1.124,1.124,0,0,0,1.125,1.125H3.442A5.155,5.155,0,0,1,6.086,10.779Z" transform="translate(0 -2.25)" fill="#e42346"/>
</svg>
