<svg id="Group_8277" data-name="Group 8277" xmlns="http://www.w3.org/2000/svg" width="18.552" height="18.552" viewBox="0 0 18.552 18.552">
  <path id="Path_19214" data-name="Path 19214" d="M15.77,1.855H13.914V.928a.928.928,0,0,0-1.855,0v.928H6.493V.928a.928.928,0,0,0-1.855,0v.928H2.783A2.783,2.783,0,0,0,0,4.638V15.77a2.783,2.783,0,0,0,2.783,2.783H15.77a2.783,2.783,0,0,0,2.783-2.783V4.638A2.783,2.783,0,0,0,15.77,1.855ZM16.7,15.77a.928.928,0,0,1-.928.928H2.783a.928.928,0,0,1-.928-.928V9.276H16.7Zm0-8.349H1.855V4.638a.928.928,0,0,1,.928-.928H4.638v.928a.928.928,0,0,0,1.855,0V3.71h5.566v.928a.928.928,0,0,0,1.855,0V3.71H15.77a.928.928,0,0,1,.928.928Z" transform="translate(0 0)" fill="#e42346"/>
  <rect id="Rectangle_5955" data-name="Rectangle 5955" width="16" height="8" transform="translate(1 9)" fill="#e42346"/>
</svg>
